<?xml version="1.0" encoding="UTF-8" standalone="no"?>
<!-- Created with Inkscape (http://www.inkscape.org/) -->

<svg
   width="512mm"
   height="512mm"
   viewBox="0 0 512 512"
   version="1.1"
   id="svg5"
   sodipodi:docname="size-modifier-small.svg"
   inkscape:version="1.1.2 (0a00cf5339, 2022-02-04)"
   xmlns:inkscape="http://www.inkscape.org/namespaces/inkscape"
   xmlns:sodipodi="http://sodipodi.sourceforge.net/DTD/sodipodi-0.dtd"
   xmlns="http://www.w3.org/2000/svg"
   xmlns:svg="http://www.w3.org/2000/svg">
  <sodipodi:namedview
     id="namedview7"
     pagecolor="#ffffff"
     bordercolor="#666666"
     borderopacity="1.0"
     inkscape:pageshadow="2"
     inkscape:pageopacity="0.0"
     inkscape:pagecheckerboard="0"
     inkscape:document-units="mm"
     showgrid="false"
     width="512px"
     units="mm"
     inkscape:zoom="0.13716686"
     inkscape:cx="40.097148"
     inkscape:cy="809.23335"
     inkscape:window-width="1920"
     inkscape:window-height="1057"
     inkscape:window-x="0"
     inkscape:window-y="23"
     inkscape:window-maximized="1"
     inkscape:current-layer="layer4"
     height="512mm"
     lock-margins="false" />
  <defs
     id="defs2" />
  <g
     inkscape:groupmode="layer"
     id="layer4"
     inkscape:label="small"
     style="display:inline">
    <path
       id="path1851"
       style="display:inline;stroke-width:0.603204"
       d="m 255.99989,123.45055 q 27.44189,0 51.77717,10.35544 24.33517,10.35542 42.19837,28.21851 17.8632,17.86309 28.21871,42.19831 10.3555,24.33525 10.3555,51.77714 0,27.44188 -10.3555,51.77714 -10.35551,24.33527 -28.21871,42.19839 -17.8632,17.86311 -42.19837,28.21854 -24.33527,10.35543 -51.77717,10.35543 -27.44189,0 -51.77715,-10.35543 -24.33526,-10.35543 -42.1984,-28.21854 -17.86311,-17.86312 -28.21855,-42.19839 -10.35542,-24.33526 -10.35542,-51.77714 0,-27.44189 10.35542,-51.77714 10.35544,-24.33522 28.21855,-42.19831 17.86314,-17.86309 42.1984,-28.21851 24.33526,-10.35544 51.77715,-10.35544 z" />
  </g>
  <g
     inkscape:groupmode="layer"
     id="layer2"
     inkscape:label="medium"
     style="display:none">
    <path
       id="path1370"
       style="display:inline;stroke-width:0.910436"
       d="m 255.99983,55.938589 q 41.41898,0 78.14903,15.62982 36.73003,15.62979 63.69149,42.591161 26.96155,26.96137 42.59145,63.69135 15.6299,36.73002 15.6299,78.149 0,41.41898 -15.6299,78.14901 -15.6299,36.73005 -42.59145,63.69147 -26.96146,26.96141 -63.69149,42.59121 -36.73005,15.6298 -78.14903,15.6298 -41.41899,0 -78.14902,-15.6298 -36.73005,-15.6298 -63.69148,-42.59121 -26.961404,-26.96142 -42.591224,-63.69147 -15.62981,-36.73003 -15.62981,-78.14901 0,-41.41898 15.62981,-78.149 15.62982,-36.72998 42.591224,-63.69135 26.96143,-26.96137 63.69148,-42.59116 36.73003,-15.62982 78.14902,-15.629821 z" />
  </g>
  <g
     inkscape:groupmode="layer"
     id="layer3"
     inkscape:label="large"
     style="display:none">
    <path
       id="path1847"
       style="display:inline;stroke-width:1.165"
       d="m 255.99978,0 q 52.99994,0 99.99991,20.00003 46.99994,19.99999 81.49996,54.49995 34.50015,34.49996 54.50025,81.4999 20.0001,47 20.0001,100.00002 0,53.00002 -20.0001,100.00003 -20.0001,47.00003 -54.50025,81.50006 -34.50002,34.5 -81.49996,54.50001 -46.99997,20 -99.99991,20 -52.99996,0 -99.99989,-20 Q 108.99992,471.99999 74.49993,437.49999 39.99999,402.99996 19.99999,355.99993 0,308.99992 0,255.9999 0,202.99988 19.99999,155.99988 q 20,-46.99994 54.49994,-81.4999 Q 108.99992,40.00002 155.99989,20.00003 202.99982,0 255.99978,0 Z" />
  </g>
</svg>
