<?xml version="1.0" encoding="UTF-8" standalone="no"?>
<svg
   version="1.1"
   width="24"
   height="24"
   viewBox="0 0 24 24"
   id="svg4"
   sodipodi:docname="magnify-zero-outline.svg"
   inkscape:version="1.1.1 (3bf5ae0d25, 2021-09-20)"
   xmlns:inkscape="http://www.inkscape.org/namespaces/inkscape"
   xmlns:sodipodi="http://sodipodi.sourceforge.net/DTD/sodipodi-0.dtd"
   xmlns="http://www.w3.org/2000/svg"
   xmlns:svg="http://www.w3.org/2000/svg">
  <defs
     id="defs8" />
  <sodipodi:namedview
     id="namedview6"
     pagecolor="#ffffff"
     bordercolor="#666666"
     borderopacity="1.0"
     inkscape:pageshadow="2"
     inkscape:pageopacity="0.0"
     inkscape:pagecheckerboard="0"
     showgrid="true"
     inkscape:zoom="35.083333"
     inkscape:cx="6.912114"
     inkscape:cy="9.6199525"
     inkscape:window-width="1920"
     inkscape:window-height="1027"
     inkscape:window-x="1592"
     inkscape:window-y="-8"
     inkscape:window-maximized="1"
     inkscape:current-layer="svg4"
     showguides="true">
    <inkscape:grid
       type="xygrid"
       id="grid5455"
       originx="-0.6"
       originy="-0.5" />
  </sodipodi:namedview>
  <path
     d="M15.5,14H14.71L14.43,13.73C15.41,12.59 16,11.11 16,9.5A6.5,6.5 0 0,0 9.5,3A6.5,6.5 0 0,0 3,9.5A6.5,6.5 0 0,0 9.5,16C11.11,16 12.59,15.41 13.73,14.43L14,14.71V15.5L19,20.5L20.5,19L15.5,14M9.5,14C7,14 5,12 5,9.5C5,7 7,5 9.5,5C12,5 14,7 14,9.5C14,12 12,14 9.5,14M7,9H12V10H7V9Z"
     id="path2" />
  <rect
     style="fill:#000000;stroke:#ffffff;stroke-width:2.38391;fill-opacity:1;stroke-opacity:1"
     id="rect849"
     width="4.9999995"
     height="0.33663177"
     x="7"
     y="-9.3366318"
     transform="scale(1,-1)" />
  <g
     aria-label="0"
     id="text4358"
     style="font-size:6.24835px;line-height:1.25;stroke-width:0.156208"
     transform="matrix(1.2345633,0,0,1.2345633,-2.2030706,-2.1792797)">
    <path
       d="m 9.3867832,7.5916289 q -0.4759485,0 -0.7169738,0.4698466 -0.2379742,0.4667957 -0.2379742,1.406489 0,0.9366425 0.2379742,1.4064885 0.2410253,0.466796 0.7169738,0.466796 0.4789995,0 0.7169738,-0.466796 0.241025,-0.469846 0.241025,-1.4064885 0,-0.9396933 -0.241025,-1.406489 Q 9.8657827,7.5916289 9.3867832,7.5916289 Z m 0,-0.4881524 q 0.7657888,0 1.1685148,0.6071395 0.405777,0.6040885 0.405777,1.7573485 0,1.1502085 -0.405777,1.7573485 -0.402726,0.604088 -1.1685148,0.604088 -0.765789,0 -1.1715656,-0.604088 -0.4027257,-0.60714 -0.4027257,-1.7573485 0,-1.15326 0.4027257,-1.7573485 0.4057766,-0.6071395 1.1715656,-0.6071395 z"
       id="path5473" />
  </g>
</svg>
